<?xml version="1.0" encoding="UTF-8" standalone="no"?>
<svg
   version="1.1"
   id="Layer_1"
   x="0px"
   y="0px"
   width="100%"
   viewBox="0 0 909 403"
   enable-background="new 0 0 909 403"
   xml:space="preserve"
   sodipodi:docname="logo.svg"
   inkscape:version="1.2.1 (9c6d41e, 2022-07-14)"
   xmlns:inkscape="http://www.inkscape.org/namespaces/inkscape"
   xmlns:sodipodi="http://sodipodi.sourceforge.net/DTD/sodipodi-0.dtd"
   xmlns="http://www.w3.org/2000/svg"
   xmlns:svg="http://www.w3.org/2000/svg"><defs
   id="defs169" /><sodipodi:namedview
   id="namedview167"
   pagecolor="#ffffff"
   bordercolor="#999999"
   borderopacity="1"
   inkscape:showpageshadow="0"
   inkscape:pageopacity="0"
   inkscape:pagecheckerboard="0"
   inkscape:deskcolor="#d1d1d1"
   showgrid="false"
   inkscape:zoom="1.6563494"
   inkscape:cx="332.05554"
   inkscape:cy="177.80065"
   inkscape:window-width="1590"
   inkscape:window-height="821"
   inkscape:window-x="0"
   inkscape:window-y="38"
   inkscape:window-maximized="0"
   inkscape:current-layer="Layer_1" />


<text
   xml:space="preserve"
   style="font-size:304.667px;line-height:1.25;font-family:'League Gothic';-inkscape-font-specification:'League Gothic';fill:#000000;fill-opacity:1"
   x="-13.998853"
   y="340.24802"
   id="text1338"
   transform="rotate(-8.3)"><tspan
     sodipodi:role="line"
     id="tspan1336"
     x="-13.998853"
     y="340.24802"
     style="font-style:italic;font-variant:normal;font-weight:normal;font-stretch:normal;font-size:304.667px;font-family:'League Gothic';-inkscape-font-specification:'League Gothic Italic';fill:#ffffff;fill-opacity:1">BEvAS</tspan></text><path
   fill="#FDFDFD"
   opacity="1"
   stroke="none"
   d="M 531.74,258.16987 838.732,214.162 853.90459,319.843 546.91319,363.85148"
   id="path3647"
   style="fill:#ffffff;fill-opacity:1"
   sodipodi:nodetypes="cccc" />




<path
   fill="#090909"
   opacity="1.000000"
   stroke="none"
   d=" M602.765381,341.891174   C582.723145,342.434296 569.949280,332.069489 566.220703,312.639404   C563.129822,296.532440 572.773804,279.858795 588.285645,274.490814   C611.150818,266.578186 632.092712,282.486237 628.862000,305.800903   C628.236145,310.317505 625.295837,315.153748 622.050476,318.518494   C617.043701,323.709320 610.962830,322.954132 605.776672,317.781586   C604.681946,318.940155 603.661743,320.181061 602.480835,321.243286   C595.322876,327.681549 585.952942,324.825928 583.659729,315.537018   C579.748413,299.693817 594.767822,286.331177 611.932678,290.700623   C611.311890,296.417603 610.556641,302.168182 610.113281,307.942688   C609.877319,311.015900 609.332031,314.600006 613.310059,315.955048   C616.420105,317.014465 620.343628,314.070618 621.895752,309.865967   C625.030579,301.373810 622.527344,289.938232 615.864258,284.101929   C607.678223,276.931610 598.289612,276.703827 588.749939,280.711670   C575.052673,286.466187 569.067139,301.193756 573.764343,316.622681   C578.102600,330.872864 591.533386,338.907898 606.633057,335.520477   C612.339172,334.240417 617.873108,331.639282 623.080505,328.876923   C626.807800,326.899750 628.138550,327.913757 629.111145,331.431946   C621.784790,338.247284 612.820312,340.832245 602.765381,341.891174  M590.065430,307.123016   C590.015137,307.620178 589.952698,308.116455 589.916382,308.614624   C589.618103,312.711273 589.367676,316.966461 594.290039,318.558014   C597.717285,319.666138 601.985596,316.003662 603.082764,310.788391   C604.131165,305.804962 604.517395,300.682281 605.231201,295.348206   C597.138611,295.611023 592.654419,299.579498 590.065430,307.123016  z"
   id="path146"
   style="fill:#000000;fill-opacity:1" />
<path
   fill="#070707"
   opacity="1.000000"
   stroke="none"
   d=" M674.010986,260.253845   C674.229980,262.117462 674.415955,263.593475 674.672180,265.626617   C665.037354,267.075134 655.446533,268.517029 645.417419,270.024811   C646.379578,276.686310 647.291748,283.001190 648.238586,289.556549   C656.168396,288.450562 663.720093,287.397308 671.818970,286.267761   C672.239319,288.429382 672.663940,290.612915 673.172119,293.226105   C665.020630,294.471649 657.233643,295.661499 649.266785,296.878815   C650.278503,303.815582 651.206909,310.181244 652.195251,316.957611   C662.025146,315.567474 671.634888,314.208496 681.584961,312.801361   C681.905945,315.266693 682.176025,317.341187 682.539368,320.132111   C669.843628,321.975189 657.284485,323.798431 644.297180,325.683838   C641.327942,305.128845 638.412354,284.945343 635.390442,264.025482   C639.698425,263.330994 643.866089,262.604523 648.050903,261.996399   C655.616699,260.896942 663.185913,259.813171 670.772583,258.875427   C671.784729,258.750305 672.906860,259.514130 674.010986,260.253845  z"
   id="path148"
   style="fill:#000000;fill-opacity:1" />
<path
   fill="#070707"
   opacity="1.000000"
   stroke="none"
   d=" M685.108887,259.051147   C685.742371,257.931274 686.363403,256.725342 687.125549,256.628448   C695.024048,255.623917 702.932312,254.250580 710.863464,254.063293   C720.465454,253.836578 726.844116,259.333740 728.798035,268.133392   C730.947815,277.814880 727.387573,286.276917 718.541504,290.069122   C713.605347,292.185211 708.010437,292.766083 702.710754,294.032074   C701.776489,294.255249 700.834351,294.445435 699.505859,294.736267   C700.524963,302.268707 701.518860,309.614441 702.574829,317.419098   C699.650085,317.813538 697.082336,318.159821 693.840149,318.597076   C690.932312,298.788635 688.047119,279.134277 685.108887,259.051147  M708.210144,261.057159   C703.836243,261.592712 699.462280,262.128265 694.764771,262.703430   C696.008484,271.194183 697.155579,279.025330 698.370483,287.319458   C702.455017,286.656860 706.254456,286.300659 709.916443,285.390930   C717.013550,283.627899 720.673157,279.012177 720.360413,272.766968   C720.027954,266.126434 716.556702,262.541290 708.210144,261.057159  z"
   id="path150"
   style="fill:#000000;fill-opacity:1" />
<path
   fill="#070707"
   opacity="1.000000"
   stroke="none"
   d=" M753.588135,309.580963   C750.718262,310.314606 748.118164,310.723572 745.053467,311.205627   C742.066895,290.550507 739.124939,270.204254 736.112854,249.373230   C748.896301,247.516617 761.490112,245.687546 774.564575,243.788666   C774.838135,246.276749 775.067871,248.366058 775.371460,251.127045   C765.628479,252.595901 756.045471,254.040649 746.127380,255.535919   C747.160950,262.550140 748.144714,269.226227 749.164429,276.146332   C757.579041,274.963470 765.603516,273.835449 774.105652,272.640289   C774.520325,275.164307 774.879150,277.348175 775.294922,279.878723   C766.756531,281.176392 758.635559,282.410583 750.229248,283.688171   C751.485901,292.542755 752.671936,300.899506 753.588135,309.580963  z"
   id="path152"
   style="fill:#000000;fill-opacity:1" />
<path
   fill="#070707"
   opacity="1.000000"
   stroke="none"
   d=" M794.441040,249.504120   C796.698730,264.865631 798.858093,279.800781 801.085327,295.205048   C809.995300,293.988007 818.616516,292.810394 827.553528,291.589661   C827.899292,294.173859 828.178162,296.257599 828.550049,299.036987   C816.878845,300.751892 805.312073,302.451477 793.300110,304.216461   C790.322693,283.573029 787.391479,263.250122 784.402100,242.523880   C787.203552,242.028671 789.750244,241.578506 793.042603,240.996521   C793.480408,243.717880 793.911560,246.397812 794.441040,249.504120  z"
   id="path154"
   style="fill:#000000;fill-opacity:1" />





</svg>
