<?xml version="1.0" encoding="UTF-8" standalone="no"?>
<svg
   version="1.1"
   id="Layer_1"
   x="0px"
   y="0px"
   width="100%"
   viewBox="0 0 909 403"
   enable-background="new 0 0 909 403"
   xml:space="preserve"
   sodipodi:docname="logo.svg"
   inkscape:version="1.2.1 (9c6d41e, 2022-07-14)"
   xmlns:inkscape="http://www.inkscape.org/namespaces/inkscape"
   xmlns:sodipodi="http://sodipodi.sourceforge.net/DTD/sodipodi-0.dtd"
   xmlns="http://www.w3.org/2000/svg"
   xmlns:svg="http://www.w3.org/2000/svg"><defs
   id="defs169" /><sodipodi:namedview
   id="namedview167"
   pagecolor="#ffffff"
   bordercolor="#999999"
   borderopacity="1"
   inkscape:showpageshadow="0"
   inkscape:pageopacity="0"
   inkscape:pagecheckerboard="0"
   inkscape:deskcolor="#d1d1d1"
   showgrid="false"
   inkscape:zoom="1.6563494"
   inkscape:cx="474.83943"
   inkscape:cy="194.10156"
   inkscape:window-width="1590"
   inkscape:window-height="821"
   inkscape:window-x="0"
   inkscape:window-y="38"
   inkscape:window-maximized="0"
   inkscape:current-layer="Layer_1" />

<path
   fill="#FDFDFD"
   opacity="1.000000"
   stroke="none"
   d=" M539.728149,311.392334   C536.930908,293.526276 534.364563,276.050110 531.739502,258.174103   C547.096008,256.076111 562.047791,254.137604 576.965637,251.966202   C592.049927,249.770538 607.083435,247.224640 622.171326,245.055511   C635.048767,243.204178 647.990662,241.802032 660.869141,239.957413   C673.545349,238.141785 686.163818,235.926285 698.833435,234.061432   C708.965942,232.570007 719.149536,231.428513 729.287537,229.972183   C739.720093,228.473572 750.116211,226.723083 760.544556,225.193512   C768.425720,224.037537 776.340515,223.112244 784.225769,221.982727   C794.986755,220.441284 805.734070,218.804184 816.487000,217.206436   C823.529663,216.159988 830.563721,215.044678 837.627197,214.166229   C838.320435,214.080017 839.771790,215.351791 839.893066,216.143173   C841.050354,223.693756 841.992065,231.277283 843.004578,238.850143   C844.361694,249.000351 845.621033,259.165192 847.123230,269.293945   C848.238647,276.815155 849.850159,284.263855 850.919556,291.790527   C852.133911,300.337006 852.997498,308.933502 853.989197,317.511108   C854.062683,318.146393 853.941040,318.804230 853.904053,319.576385   C751.694702,334.318695 649.577820,349.047668 546.912659,363.855713   C544.597351,346.516693 542.278259,329.149414 539.728149,311.392334  M603.223816,341.862457   C612.820312,340.832245 621.784790,338.247284 629.111145,331.431946   C628.138550,327.913757 626.807800,326.899750 623.080505,328.876923   C617.873108,331.639282 612.339172,334.240417 606.633057,335.520477   C591.533386,338.907898 578.102600,330.872864 573.764343,316.622681   C569.067139,301.193756 575.052673,286.466187 588.749939,280.711670   C598.289612,276.703827 607.678223,276.931610 615.864258,284.101929   C622.527344,289.938232 625.030579,301.373810 621.895752,309.865967   C620.343628,314.070618 616.420105,317.014465 613.310059,315.955048   C609.332031,314.600006 609.877319,311.015900 610.113281,307.942688   C610.556641,302.168182 611.311890,296.417603 611.932678,290.700623   C594.767822,286.331177 579.748413,299.693817 583.659729,315.537018   C585.952942,324.825928 595.322876,327.681549 602.480835,321.243286   C603.661743,320.181061 604.681946,318.940155 605.776672,317.781586   C610.962830,322.954132 617.043701,323.709320 622.050476,318.518494   C625.295837,315.153748 628.236145,310.317505 628.862000,305.800903   C632.092712,282.486237 611.150818,266.578186 588.285645,274.490814   C572.773804,279.858795 563.129822,296.532440 566.220703,312.639404   C569.949280,332.069489 582.723145,342.434296 603.223816,341.862457  M673.978027,259.866272   C672.906860,259.514130 671.784729,258.750305 670.772583,258.875427   C663.185913,259.813171 655.616699,260.896942 648.050903,261.996399   C643.866089,262.604523 639.698425,263.330994 635.390442,264.025482   C638.412354,284.945343 641.327942,305.128845 644.297180,325.683838   C657.284485,323.798431 669.843628,321.975189 682.539368,320.132111   C682.176025,317.341187 681.905945,315.266693 681.584961,312.801361   C671.634888,314.208496 662.025146,315.567474 652.195251,316.957611   C651.206909,310.181244 650.278503,303.815582 649.266785,296.878815   C657.233643,295.661499 665.020630,294.471649 673.172119,293.226105   C672.663940,290.612915 672.239319,288.429382 671.818970,286.267761   C663.720093,287.397308 656.168396,288.450562 648.238586,289.556549   C647.291748,283.001190 646.379578,276.686310 645.417419,270.024811   C655.446533,268.517029 665.037354,267.075134 674.672180,265.626617   C674.415955,263.593475 674.229980,262.117462 673.978027,259.866272  M685.161926,259.479950   C688.047119,279.134277 690.932312,298.788635 693.840149,318.597076   C697.082336,318.159821 699.650085,317.813538 702.574829,317.419098   C701.518860,309.614441 700.524963,302.268707 699.505859,294.736267   C700.834351,294.445435 701.776489,294.255249 702.710754,294.032074   C708.010437,292.766083 713.605347,292.185211 718.541504,290.069122   C727.387573,286.276917 730.947815,277.814880 728.798035,268.133392   C726.844116,259.333740 720.465454,253.836578 710.863464,254.063293   C702.932312,254.250580 695.024048,255.623917 687.125549,256.628448   C686.363403,256.725342 685.742371,257.931274 685.161926,259.479950  M753.857971,309.256287   C752.671936,300.899506 751.485901,292.542755 750.229248,283.688171   C758.635559,282.410583 766.756531,281.176392 775.294922,279.878723   C774.879150,277.348175 774.520325,275.164307 774.105652,272.640289   C765.603516,273.835449 757.579041,274.963470 749.164429,276.146332   C748.144714,269.226227 747.160950,262.550140 746.127380,255.535919   C756.045471,254.040649 765.628479,252.595901 775.371460,251.127045   C775.067871,248.366058 774.838135,246.276749 774.564575,243.788666   C761.490112,245.687546 748.896301,247.516617 736.112854,249.373230   C739.124939,270.204254 742.066895,290.550507 745.053467,311.205627   C748.118164,310.723572 750.718262,310.314606 753.857971,309.256287  M794.342712,249.077759   C793.911560,246.397812 793.480408,243.717880 793.042603,240.996521   C789.750244,241.578506 787.203552,242.028671 784.402100,242.523880   C787.391479,263.250122 790.322693,283.573029 793.300110,304.216461   C805.312073,302.451477 816.878845,300.751892 828.550049,299.036987   C828.178162,296.257599 827.899292,294.173859 827.553528,291.589661   C818.616516,292.810394 809.995300,293.988007 801.085327,295.205048   C798.858093,279.800781 796.698730,264.865631 794.342712,249.077759  z"
   id="path134"
   style="fill:#ffffff;fill-opacity:1" />
<path
   fill="#FFFFFF"
   opacity="1.000000"
   stroke="none"
   d=" M145.807358,129.511169   C146.317169,137.977020 146.823593,146.042618 146.967194,154.114639   C147.313904,173.603607 140.506134,190.230408 126.582191,203.912933   C126.001556,204.483505 125.472336,205.106415 124.686058,205.957153   C136.283432,213.714233 140.414124,225.223389 142.063705,238.263702   C144.701981,259.119934 141.941467,279.105042 132.944870,298.080200   C124.755005,315.353790 110.586258,325.628723 92.328522,329.836334   C81.304680,332.376862 69.915596,333.332581 58.690571,335.000031   C55.211838,335.516815 51.732941,336.032471 47.544518,336.653931   C48.369644,326.476135 49.206661,316.508148 49.974522,306.534851   C50.378288,301.290558 50.720924,296.039917 50.984421,290.786804   C51.372929,283.041382 51.486534,275.278351 52.036751,267.545593   C53.246971,250.536972 54.681057,233.544403 55.972416,216.541397   C56.395916,210.965302 56.710987,205.379623 56.986431,199.793930   C57.368393,192.048126 57.486546,184.285385 58.036739,176.552597   C59.246914,159.544037 60.765907,142.557114 61.924641,125.545410   C62.311481,119.866089 61.985744,114.138229 61.985744,107.779373   C78.421684,106.103142 93.608879,103.680046 108.855583,103.217346   C128.567688,102.619141 140.191971,110.145119 145.807358,129.511169  M83.999847,286.254272   C83.565407,290.102081 83.130966,293.949860 82.677818,297.963379   C92.618340,296.792542 99.966377,291.842224 103.133263,283.681671   C108.494469,269.866699 110.903381,255.647736 107.747658,241.243881   C105.637772,231.613617 99.857674,224.505356 87.279800,229.579605   C86.184792,248.184494 85.092392,266.744995 83.999847,286.254272  M101.472588,193.057373   C102.054482,192.794037 102.715660,192.632980 103.206650,192.252365   C115.157639,182.988235 117.682823,157.817337 112.610191,145.656052   C111.230881,142.349258 107.392838,139.411362 103.979729,137.745667   C96.771042,134.227570 93.257721,136.997696 92.930298,144.893158   C92.577400,153.402985 91.410378,161.880081 91.090378,170.389969   C90.758659,179.211578 91.016525,188.055344 91.016525,197.548828   C94.205498,196.279602 97.569893,194.940552 101.472588,193.057373  z"
   id="path136"
   style="fill:#ffffff;fill-opacity:1" />
<path
   fill="#FFFFFF"
   opacity="1.000000"
   stroke="none"
   d=" M399.008057,240.037323   C392.321930,241.005142 386.086914,242.032181 379.840759,242.986176   C377.107208,243.403687 374.260742,243.369781 371.647125,244.149506   C370.528198,244.483307 369.338440,246.266937 369.087952,247.566605   C366.250244,262.290131 363.588562,277.047607 360.902588,291.671509   C350.143250,293.196411 339.757263,294.668396 328.442474,296.272003   C329.888062,288.985199 331.133179,282.527954 332.453979,276.086212   C335.952423,259.024475 339.468018,241.966248 343.006195,224.912720   C346.445831,208.334442 349.929443,191.765305 353.380005,175.189301   C356.929169,158.139786 360.446655,141.083679 364.005890,124.036293   C367.136292,109.042946 370.301453,94.056854 373.459686,79.069344   C374.289856,75.129608 375.561005,71.229530 375.882141,67.250900   C376.198334,63.333347 378.725281,62.454388 381.590820,62.059040   C392.229431,60.591270 402.898254,59.343636 413.549316,57.963547   C414.471466,57.844055 415.346283,57.359371 416.642212,56.904118   C417.101166,58.423946 417.841522,59.889690 417.952301,61.401562   C418.708984,71.730179 419.238617,82.075668 420.022125,92.402000   C421.274933,108.912903 422.659576,125.413849 424.004578,141.917694   C424.989716,154.005722 426.006989,166.091156 426.998596,178.178665   C428.338898,194.516144 429.658722,210.855286 431.005646,227.192215   C431.988556,239.113922 432.961426,251.036682 434.016998,262.952057   C434.532990,268.776337 435.227417,274.584869 435.896576,280.926392   C425.214386,282.408142 414.464417,283.899323 403.601135,285.406219   C402.190613,269.983307 400.822601,255.025085 399.008057,240.037323  M387.000122,154.562836   C383.738342,171.922470 380.476562,189.282089 377.071014,207.406952   C382.145386,206.570435 386.888733,205.713043 391.656097,205.020935   C398.237610,204.065445 398.645996,203.451492 398.025299,196.835358   C396.926422,185.122040 395.878540,173.401291 395.035583,161.667404   C394.263214,150.916229 393.789612,140.143600 393.184387,129.380417   C392.855377,129.358261 392.526398,129.336105 392.197388,129.313934   C390.465729,137.435379 388.734070,145.556824 387.000122,154.562836  z"
   id="path138"
   style="fill:#ffffff;fill-opacity:1" />
<path
   fill="#FFFFFF"
   opacity="1"
   stroke="none"
   d="m 536.56525,184.22018 c 4.50401,11.54267 6.09949,25.98104 3.55457,38.12126 -1.71631,8.18764 -1.71638,10.01196 -4.19679,17.95227 -6.48767,20.76851 -22.71045,32.1141 -44.46768,34.57632 -7.20642,0.81555 -14.83264,1.1506 -21.8421,-0.31983 -9.27145,-1.94495 -15.03677,-8.85272 -18.72711,-17.70697 -5.61298,-13.46722 -3.28626,-27.47955 -3.95844,-41.64238 11.08445,-2.67755 21.96585,-5.30604 33.0723,-7.98889 0,6.74754 -0.56735,13.30574 0.18616,19.70848 0.56549,4.80498 2.09903,9.83264 4.51233,14.00261 3.39874,5.87285 12.61584,2.76535 15.37481,-1.76711 2.68177,-4.4056 4.49338,-9.50778 5.83231,-14.53186 3.65167,-13.70224 -2.1651,-25.25494 -9.17166,-36.36258 -8.75736,-13.88313 -18.38553,-27.28231 -26.22309,-41.66152 -7.52847,-13.8122 -12.74414,-28.8561 -11.415,-45.02977 1.52725,-18.584103 7.44097,-35.44447 22.01776,-48.174645 7.61249,-6.648151 16.37768,-10.889061 26.57629,-11.321186 5.76401,-0.244225 11.76645,-0.646088 17.30002,0.612339 13.10809,2.980976 18.24005,13.630299 20.79132,25.308811 1.69678,7.766808 1.70758,15.930039 2.08374,23.93412 0.0774,1.649247 -1.24127,4.537812 -2.47613,4.889313 -9.86628,2.808518 -19.86725,5.143868 -29.85773,7.631828 -0.54218,-7.160598 -0.55292,-13.781761 -1.70477,-20.198059 -0.74616,-4.156356 -1.54706,-9.181381 -7.23862,-10.25608 -4.92777,-0.930481 -10.7515,3.900711 -12.59958,10.079086 -4.4007,14.712105 -0.9278,27.862043 7.01788,40.528893 11.10224,17.69897 21.76618,35.67293 32.59967,53.54011 0.24182,0.39888 2.63955,5.2553 2.95954,6.07544 z"
   id="path140"
   style="fill:#ffffff;fill-opacity:1"
   sodipodi:nodetypes="ssssssccssssssssssssscssssss" />
<path
   fill="#FFFFFF"
   opacity="1.000000"
   stroke="none"
   d=" M227.000000,210.835846   C227.906326,216.577957 223.330109,215.417175 220.982040,215.859146   C213.650131,217.239212 206.177826,217.863647 198.824249,219.148865   C197.707794,219.343979 196.198212,221.446777 196.113815,222.747849   C195.260742,235.898560 194.730545,249.069763 193.971588,262.227264   C193.617691,268.362518 192.961426,274.480347 192.419601,280.873016   C206.188232,278.902100 219.878784,276.942383 232.975403,275.067657   C232.975403,284.144318 233.582718,293.076477 232.799408,301.884949   C232.061295,310.184967 231.461441,310.412537 221.953796,311.903015   C209.434265,313.865662 196.826752,315.260284 184.274445,317.022919   C175.323257,318.279816 166.400696,319.740479 156.695068,321.228271   C157.451553,312.579254 158.202728,304.460602 158.858231,296.334229   C159.307373,290.766174 159.700623,285.191284 159.980606,279.612518   C160.385971,271.535614 160.555481,263.445984 161.023514,255.373260   C161.946365,239.455338 162.969025,223.542908 164.021957,207.632950   C164.606812,198.795441 165.413010,189.972443 165.983353,181.134140   C167.042267,164.724777 167.971802,148.307083 169.013641,131.896576   C169.616913,122.394119 170.282349,112.894844 171.026627,103.402504   C171.307098,99.825432 171.888840,96.271980 172.365784,92.446777   C196.893784,88.915039 221.708725,85.341988 247.379990,81.645638   C246.570969,90.155602 245.776596,97.931290 245.122055,105.718735   C244.899841,108.362648 244.799515,111.059372 245.063187,113.689903   C245.341507,116.466797 243.997437,117.656372 241.632919,117.961266   C230.821091,119.355354 219.994583,120.635475 209.182404,122.026901   C207.275970,122.272240 205.412659,122.852577 202.950256,123.409103   C201.620651,142.715607 200.273254,162.280365 198.922058,181.900314   C209.064713,180.415649 218.680771,179.008072 229.024490,177.493973   C228.323441,188.876984 227.661713,199.621323 227.000000,210.835846  z"
   id="path142"
   style="fill:#ffffff;fill-opacity:1" />
<path
   fill="#FFFFFF"
   opacity="1.000000"
   stroke="none"
   d=" M321.280090,190.345886   C318.582397,202.381561 316.152802,214.061661 313.662750,225.728851   C310.130981,242.277130 306.569397,258.819092 302.990723,275.357300   C301.355530,282.914246 299.551483,290.436005 298.018707,298.013123   C297.318481,301.474548 294.671173,300.865570 292.407288,301.229553   C283.793182,302.614563 275.178070,303.993378 266.238617,305.426575   C265.455414,296.144775 264.839172,287.508453 263.973083,278.897247   C262.747864,266.715729 261.221466,254.563995 260.046173,242.378082   C259.179810,233.394913 258.825470,224.362411 257.961792,215.378906   C256.790314,203.193130 255.280029,191.040253 254.049988,178.859619   C253.243271,170.871094 252.666763,162.859177 252.003342,154.856384   C251.651123,150.607712 251.061462,146.350128 251.155579,142.109375   C251.186264,140.726639 252.877075,138.381195 254.086655,138.184311   C262.764496,136.771912 271.514008,135.799866 280.652374,134.635544   C281.117676,142.200668 281.756348,149.367538 281.959930,156.546722   C282.420685,172.795593 282.615875,189.051788 283.020752,205.302490   C283.238892,214.057861 283.579803,222.812622 284.043823,231.558212   C284.223511,234.944595 284.896118,238.304840 286.079132,241.868073   C286.718689,239.000122 287.508331,236.156250 287.973083,233.260239   C290.695801,216.293793 293.285370,199.305908 296.031586,182.343338   C298.619720,166.357285 301.272797,150.380432 304.139282,134.443039   C304.389404,133.052322 306.291809,131.155853 307.682312,130.903763   C316.582092,129.290314 325.553375,128.071198 335.250641,126.609413   C330.560455,148.259445 326.040833,169.122009 321.280090,190.345886  z"
   id="path144"
   style="fill:#ffffff;fill-opacity:1" />
<path
   fill="#090909"
   opacity="1.000000"
   stroke="none"
   d=" M602.765381,341.891174   C582.723145,342.434296 569.949280,332.069489 566.220703,312.639404   C563.129822,296.532440 572.773804,279.858795 588.285645,274.490814   C611.150818,266.578186 632.092712,282.486237 628.862000,305.800903   C628.236145,310.317505 625.295837,315.153748 622.050476,318.518494   C617.043701,323.709320 610.962830,322.954132 605.776672,317.781586   C604.681946,318.940155 603.661743,320.181061 602.480835,321.243286   C595.322876,327.681549 585.952942,324.825928 583.659729,315.537018   C579.748413,299.693817 594.767822,286.331177 611.932678,290.700623   C611.311890,296.417603 610.556641,302.168182 610.113281,307.942688   C609.877319,311.015900 609.332031,314.600006 613.310059,315.955048   C616.420105,317.014465 620.343628,314.070618 621.895752,309.865967   C625.030579,301.373810 622.527344,289.938232 615.864258,284.101929   C607.678223,276.931610 598.289612,276.703827 588.749939,280.711670   C575.052673,286.466187 569.067139,301.193756 573.764343,316.622681   C578.102600,330.872864 591.533386,338.907898 606.633057,335.520477   C612.339172,334.240417 617.873108,331.639282 623.080505,328.876923   C626.807800,326.899750 628.138550,327.913757 629.111145,331.431946   C621.784790,338.247284 612.820312,340.832245 602.765381,341.891174  M590.065430,307.123016   C590.015137,307.620178 589.952698,308.116455 589.916382,308.614624   C589.618103,312.711273 589.367676,316.966461 594.290039,318.558014   C597.717285,319.666138 601.985596,316.003662 603.082764,310.788391   C604.131165,305.804962 604.517395,300.682281 605.231201,295.348206   C597.138611,295.611023 592.654419,299.579498 590.065430,307.123016  z"
   id="path146"
   style="fill:#000000;fill-opacity:1" />
<path
   fill="#070707"
   opacity="1.000000"
   stroke="none"
   d=" M674.010986,260.253845   C674.229980,262.117462 674.415955,263.593475 674.672180,265.626617   C665.037354,267.075134 655.446533,268.517029 645.417419,270.024811   C646.379578,276.686310 647.291748,283.001190 648.238586,289.556549   C656.168396,288.450562 663.720093,287.397308 671.818970,286.267761   C672.239319,288.429382 672.663940,290.612915 673.172119,293.226105   C665.020630,294.471649 657.233643,295.661499 649.266785,296.878815   C650.278503,303.815582 651.206909,310.181244 652.195251,316.957611   C662.025146,315.567474 671.634888,314.208496 681.584961,312.801361   C681.905945,315.266693 682.176025,317.341187 682.539368,320.132111   C669.843628,321.975189 657.284485,323.798431 644.297180,325.683838   C641.327942,305.128845 638.412354,284.945343 635.390442,264.025482   C639.698425,263.330994 643.866089,262.604523 648.050903,261.996399   C655.616699,260.896942 663.185913,259.813171 670.772583,258.875427   C671.784729,258.750305 672.906860,259.514130 674.010986,260.253845  z"
   id="path148"
   style="fill:#000000;fill-opacity:1" />
<path
   fill="#070707"
   opacity="1.000000"
   stroke="none"
   d=" M685.108887,259.051147   C685.742371,257.931274 686.363403,256.725342 687.125549,256.628448   C695.024048,255.623917 702.932312,254.250580 710.863464,254.063293   C720.465454,253.836578 726.844116,259.333740 728.798035,268.133392   C730.947815,277.814880 727.387573,286.276917 718.541504,290.069122   C713.605347,292.185211 708.010437,292.766083 702.710754,294.032074   C701.776489,294.255249 700.834351,294.445435 699.505859,294.736267   C700.524963,302.268707 701.518860,309.614441 702.574829,317.419098   C699.650085,317.813538 697.082336,318.159821 693.840149,318.597076   C690.932312,298.788635 688.047119,279.134277 685.108887,259.051147  M708.210144,261.057159   C703.836243,261.592712 699.462280,262.128265 694.764771,262.703430   C696.008484,271.194183 697.155579,279.025330 698.370483,287.319458   C702.455017,286.656860 706.254456,286.300659 709.916443,285.390930   C717.013550,283.627899 720.673157,279.012177 720.360413,272.766968   C720.027954,266.126434 716.556702,262.541290 708.210144,261.057159  z"
   id="path150"
   style="fill:#000000;fill-opacity:1" />
<path
   fill="#070707"
   opacity="1.000000"
   stroke="none"
   d=" M753.588135,309.580963   C750.718262,310.314606 748.118164,310.723572 745.053467,311.205627   C742.066895,290.550507 739.124939,270.204254 736.112854,249.373230   C748.896301,247.516617 761.490112,245.687546 774.564575,243.788666   C774.838135,246.276749 775.067871,248.366058 775.371460,251.127045   C765.628479,252.595901 756.045471,254.040649 746.127380,255.535919   C747.160950,262.550140 748.144714,269.226227 749.164429,276.146332   C757.579041,274.963470 765.603516,273.835449 774.105652,272.640289   C774.520325,275.164307 774.879150,277.348175 775.294922,279.878723   C766.756531,281.176392 758.635559,282.410583 750.229248,283.688171   C751.485901,292.542755 752.671936,300.899506 753.588135,309.580963  z"
   id="path152"
   style="fill:#000000;fill-opacity:1" />
<path
   fill="#070707"
   opacity="1.000000"
   stroke="none"
   d=" M794.441040,249.504120   C796.698730,264.865631 798.858093,279.800781 801.085327,295.205048   C809.995300,293.988007 818.616516,292.810394 827.553528,291.589661   C827.899292,294.173859 828.178162,296.257599 828.550049,299.036987   C816.878845,300.751892 805.312073,302.451477 793.300110,304.216461   C790.322693,283.573029 787.391479,263.250122 784.402100,242.523880   C787.203552,242.028671 789.750244,241.578506 793.042603,240.996521   C793.480408,243.717880 793.911560,246.397812 794.441040,249.504120  z"
   id="path154"
   style="fill:#000000;fill-opacity:1" />





</svg>
